<mxfile host="app.diagrams.net" modified="2023-06-28T02:57:06.651Z" agent="Mozilla/5.0 (Windows NT 10.0; Win64; x64) AppleWebKit/537.36 (KHTML, like Gecko) Chrome/114.0.0.0 Safari/537.36" etag="qjZIjZyqtx9qeKkyHM9p" version="21.5.1" type="device">
  <diagram name="페이지-1" id="QZqOj2KU6Bx0PZsoJat7">
    <mxGraphModel dx="1195" dy="-580" grid="1" gridSize="10" guides="1" tooltips="1" connect="1" arrows="1" fold="1" page="1" pageScale="1" pageWidth="827" pageHeight="1169" math="0" shadow="0">
      <root>
        <mxCell id="0" />
        <mxCell id="1" parent="0" />
        <mxCell id="CZpRQN7b8hvWYTL_q2dB-43" value="비회원" style="shape=umlActor;verticalLabelPosition=bottom;verticalAlign=top;html=1;" parent="1" vertex="1">
          <mxGeometry x="85" y="1220" width="30" height="60" as="geometry" />
        </mxCell>
        <mxCell id="CZpRQN7b8hvWYTL_q2dB-45" value="" style="endArrow=open;endFill=1;endSize=12;html=1;rounded=0;" parent="1" source="CZpRQN7b8hvWYTL_q2dB-43" edge="1" target="CZpRQN7b8hvWYTL_q2dB-64">
          <mxGeometry width="160" relative="1" as="geometry">
            <mxPoint x="150" y="1249.41" as="sourcePoint" />
            <mxPoint x="245" y="1249.57" as="targetPoint" />
          </mxGeometry>
        </mxCell>
        <mxCell id="CZpRQN7b8hvWYTL_q2dB-55" value="관리자" style="shape=umlActor;verticalLabelPosition=bottom;verticalAlign=top;html=1;" parent="1" vertex="1">
          <mxGeometry x="80" y="2820" width="30" height="60" as="geometry" />
        </mxCell>
        <mxCell id="CZpRQN7b8hvWYTL_q2dB-56" value="사용자" style="shape=umlActor;verticalLabelPosition=bottom;verticalAlign=top;html=1;" parent="1" vertex="1">
          <mxGeometry x="210" y="1410" width="30" height="60" as="geometry" />
        </mxCell>
        <mxCell id="CZpRQN7b8hvWYTL_q2dB-59" value="" style="endArrow=block;endSize=16;endFill=0;html=1;rounded=0;" parent="1" source="CZpRQN7b8hvWYTL_q2dB-43" target="CZpRQN7b8hvWYTL_q2dB-56" edge="1">
          <mxGeometry width="160" relative="1" as="geometry">
            <mxPoint x="120" y="1260.57" as="sourcePoint" />
            <mxPoint x="325" y="1202.57" as="targetPoint" />
          </mxGeometry>
        </mxCell>
        <mxCell id="CZpRQN7b8hvWYTL_q2dB-64" value="회원가입" style="ellipse;whiteSpace=wrap;html=1;" parent="1" vertex="1">
          <mxGeometry x="200" y="1225" width="110" height="50" as="geometry" />
        </mxCell>
        <mxCell id="CZpRQN7b8hvWYTL_q2dB-67" value="호텔소개" style="ellipse;whiteSpace=wrap;html=1;" parent="1" vertex="1">
          <mxGeometry x="435" y="1270" width="110" height="50" as="geometry" />
        </mxCell>
        <mxCell id="CZpRQN7b8hvWYTL_q2dB-68" value="" style="endArrow=open;endFill=1;endSize=12;html=1;rounded=0;exitX=0.5;exitY=0.5;exitDx=0;exitDy=0;exitPerimeter=0;entryX=0.023;entryY=0.343;entryDx=0;entryDy=0;entryPerimeter=0;" parent="1" source="CZpRQN7b8hvWYTL_q2dB-56" target="CZpRQN7b8hvWYTL_q2dB-67" edge="1">
          <mxGeometry width="160" relative="1" as="geometry">
            <mxPoint x="55" y="1073.57" as="sourcePoint" />
            <mxPoint x="145" y="1068.57" as="targetPoint" />
          </mxGeometry>
        </mxCell>
        <mxCell id="CZpRQN7b8hvWYTL_q2dB-71" value="회원" style="shape=umlActor;verticalLabelPosition=bottom;verticalAlign=top;html=1;" parent="1" vertex="1">
          <mxGeometry x="85" y="1800" width="30" height="60" as="geometry" />
        </mxCell>
        <mxCell id="CZpRQN7b8hvWYTL_q2dB-72" value="" style="endArrow=block;endSize=16;endFill=0;html=1;rounded=0;entryX=0;entryY=0.3333333333333333;entryDx=0;entryDy=0;entryPerimeter=0;" parent="1" source="CZpRQN7b8hvWYTL_q2dB-71" target="CZpRQN7b8hvWYTL_q2dB-56" edge="1">
          <mxGeometry width="160" relative="1" as="geometry">
            <mxPoint x="135" y="1353.57" as="sourcePoint" />
            <mxPoint x="235" y="1299.57" as="targetPoint" />
          </mxGeometry>
        </mxCell>
        <mxCell id="CZpRQN7b8hvWYTL_q2dB-75" value="마이페이지" style="ellipse;whiteSpace=wrap;html=1;" parent="1" vertex="1">
          <mxGeometry x="547.5" y="2720" width="110" height="50" as="geometry" />
        </mxCell>
        <mxCell id="CZpRQN7b8hvWYTL_q2dB-77" value="" style="endArrow=open;endFill=1;endSize=12;html=1;rounded=0;entryX=0.038;entryY=0.393;entryDx=0;entryDy=0;entryPerimeter=0;" parent="1" source="CZpRQN7b8hvWYTL_q2dB-55" target="CZpRQN7b8hvWYTL_q2dB-75" edge="1">
          <mxGeometry width="160" relative="1" as="geometry">
            <mxPoint x="145" y="1513.57" as="sourcePoint" />
            <mxPoint x="255" y="1513.57" as="targetPoint" />
          </mxGeometry>
        </mxCell>
        <mxCell id="CZpRQN7b8hvWYTL_q2dB-79" value="좋아요누른&lt;br&gt;게시글" style="ellipse;whiteSpace=wrap;html=1;" parent="1" vertex="1">
          <mxGeometry x="842.5" y="2700" width="110" height="50" as="geometry" />
        </mxCell>
        <mxCell id="CZpRQN7b8hvWYTL_q2dB-81" value="회원탈퇴" style="ellipse;whiteSpace=wrap;html=1;" parent="1" vertex="1">
          <mxGeometry x="842.5" y="2760" width="110" height="50" as="geometry" />
        </mxCell>
        <mxCell id="CZpRQN7b8hvWYTL_q2dB-83" value="내정보조회" style="ellipse;whiteSpace=wrap;html=1;" parent="1" vertex="1">
          <mxGeometry x="842.5" y="2640" width="110" height="50" as="geometry" />
        </mxCell>
        <mxCell id="CZpRQN7b8hvWYTL_q2dB-85" value="&amp;lt;&amp;lt;extend&amp;gt;&amp;gt;" style="endArrow=open;endSize=12;dashed=1;html=1;rounded=0;exitX=0;exitY=0.5;exitDx=0;exitDy=0;entryX=0.97;entryY=0.227;entryDx=0;entryDy=0;entryPerimeter=0;" parent="1" source="CZpRQN7b8hvWYTL_q2dB-83" target="CZpRQN7b8hvWYTL_q2dB-75" edge="1">
          <mxGeometry x="-0.024" y="2" width="160" relative="1" as="geometry">
            <mxPoint x="445" y="1512.74" as="sourcePoint" />
            <mxPoint x="325" y="1512.74" as="targetPoint" />
            <mxPoint as="offset" />
          </mxGeometry>
        </mxCell>
        <mxCell id="CZpRQN7b8hvWYTL_q2dB-87" value="&amp;lt;&amp;lt;extend&amp;gt;&amp;gt;" style="endArrow=open;endSize=12;dashed=1;html=1;rounded=0;entryX=1;entryY=0.5;entryDx=0;entryDy=0;" parent="1" source="CZpRQN7b8hvWYTL_q2dB-79" target="CZpRQN7b8hvWYTL_q2dB-75" edge="1">
          <mxGeometry x="0.1101" y="13" width="160" relative="1" as="geometry">
            <mxPoint x="722.5" y="2695" as="sourcePoint" />
            <mxPoint x="659.5" y="2721" as="targetPoint" />
            <mxPoint as="offset" />
          </mxGeometry>
        </mxCell>
        <mxCell id="CZpRQN7b8hvWYTL_q2dB-89" value="&amp;lt;&amp;lt;extend&amp;gt;&amp;gt;" style="endArrow=open;endSize=12;dashed=1;html=1;rounded=0;exitX=-0.015;exitY=0.343;exitDx=0;exitDy=0;exitPerimeter=0;" parent="1" source="CZpRQN7b8hvWYTL_q2dB-81" target="CZpRQN7b8hvWYTL_q2dB-75" edge="1">
          <mxGeometry x="-0.024" y="2" width="160" relative="1" as="geometry">
            <mxPoint x="742.5" y="2715" as="sourcePoint" />
            <mxPoint x="679.5" y="2741" as="targetPoint" />
            <mxPoint as="offset" />
          </mxGeometry>
        </mxCell>
        <mxCell id="CZpRQN7b8hvWYTL_q2dB-90" value="좋아요누른&lt;br&gt;게시글" style="ellipse;whiteSpace=wrap;html=1;" parent="1" vertex="1">
          <mxGeometry x="842.5" y="2700" width="110" height="50" as="geometry" />
        </mxCell>
        <mxCell id="CZpRQN7b8hvWYTL_q2dB-91" value="회원탈퇴" style="ellipse;whiteSpace=wrap;html=1;" parent="1" vertex="1">
          <mxGeometry x="842.5" y="2760" width="110" height="50" as="geometry" />
        </mxCell>
        <mxCell id="CZpRQN7b8hvWYTL_q2dB-92" value="자유게시판&lt;br&gt;목록조회" style="ellipse;whiteSpace=wrap;html=1;" parent="1" vertex="1">
          <mxGeometry x="547.5" y="2790" width="110" height="50" as="geometry" />
        </mxCell>
        <mxCell id="CZpRQN7b8hvWYTL_q2dB-93" value="자유게시판&lt;br&gt;상세조회" style="ellipse;whiteSpace=wrap;html=1;" parent="1" vertex="1">
          <mxGeometry x="547.5" y="2860" width="110" height="50" as="geometry" />
        </mxCell>
        <mxCell id="CZpRQN7b8hvWYTL_q2dB-94" value="자유게시판&lt;br&gt;글작성" style="ellipse;whiteSpace=wrap;html=1;" parent="1" vertex="1">
          <mxGeometry x="547.5" y="2930" width="110" height="50" as="geometry" />
        </mxCell>
        <mxCell id="CZpRQN7b8hvWYTL_q2dB-95" value="" style="endArrow=open;endFill=1;endSize=12;html=1;rounded=0;entryX=0.023;entryY=0.327;entryDx=0;entryDy=0;entryPerimeter=0;" parent="1" source="CZpRQN7b8hvWYTL_q2dB-55" target="CZpRQN7b8hvWYTL_q2dB-92" edge="1">
          <mxGeometry width="160" relative="1" as="geometry">
            <mxPoint x="145" y="1523.57" as="sourcePoint" />
            <mxPoint x="239" y="1523.57" as="targetPoint" />
          </mxGeometry>
        </mxCell>
        <mxCell id="CZpRQN7b8hvWYTL_q2dB-96" value="" style="endArrow=open;endFill=1;endSize=12;html=1;rounded=0;entryX=0;entryY=0;entryDx=0;entryDy=0;" parent="1" source="CZpRQN7b8hvWYTL_q2dB-55" target="CZpRQN7b8hvWYTL_q2dB-93" edge="1">
          <mxGeometry width="160" relative="1" as="geometry">
            <mxPoint x="136" y="1613.57" as="sourcePoint" />
            <mxPoint x="234" y="1679.57" as="targetPoint" />
          </mxGeometry>
        </mxCell>
        <mxCell id="CZpRQN7b8hvWYTL_q2dB-97" value="" style="endArrow=open;endFill=1;endSize=12;html=1;rounded=0;entryX=0.076;entryY=0.23;entryDx=0;entryDy=0;entryPerimeter=0;" parent="1" source="CZpRQN7b8hvWYTL_q2dB-55" target="CZpRQN7b8hvWYTL_q2dB-94" edge="1">
          <mxGeometry width="160" relative="1" as="geometry">
            <mxPoint x="123" y="1633.57" as="sourcePoint" />
            <mxPoint x="234" y="1750.57" as="targetPoint" />
          </mxGeometry>
        </mxCell>
        <mxCell id="CZpRQN7b8hvWYTL_q2dB-100" value="게시글 수정" style="ellipse;whiteSpace=wrap;html=1;" parent="1" vertex="1">
          <mxGeometry x="842.5" y="2840" width="110" height="50" as="geometry" />
        </mxCell>
        <mxCell id="CZpRQN7b8hvWYTL_q2dB-101" value="게시글 삭제" style="ellipse;whiteSpace=wrap;html=1;" parent="1" vertex="1">
          <mxGeometry x="842.5" y="2900" width="110" height="50" as="geometry" />
        </mxCell>
        <mxCell id="CZpRQN7b8hvWYTL_q2dB-102" value="&amp;lt;&amp;lt;extend&amp;gt;&amp;gt;" style="endArrow=open;endSize=12;dashed=1;html=1;rounded=0;exitX=0.038;exitY=0.243;exitDx=0;exitDy=0;exitPerimeter=0;entryX=0.96;entryY=0.74;entryDx=0;entryDy=0;entryPerimeter=0;" parent="1" source="CZpRQN7b8hvWYTL_q2dB-101" edge="1" target="CZpRQN7b8hvWYTL_q2dB-93">
          <mxGeometry x="-0.024" y="2" width="160" relative="1" as="geometry">
            <mxPoint x="842.5" y="2910" as="sourcePoint" />
            <mxPoint x="657.5" y="2885" as="targetPoint" />
            <mxPoint as="offset" />
          </mxGeometry>
        </mxCell>
        <mxCell id="CZpRQN7b8hvWYTL_q2dB-103" value="&amp;lt;&amp;lt;extend&amp;gt;&amp;gt;" style="endArrow=open;endSize=12;dashed=1;html=1;rounded=0;exitX=0;exitY=0.5;exitDx=0;exitDy=0;entryX=1;entryY=0.5;entryDx=0;entryDy=0;" parent="1" source="CZpRQN7b8hvWYTL_q2dB-100" target="CZpRQN7b8hvWYTL_q2dB-93" edge="1">
          <mxGeometry x="-0.024" y="2" width="160" relative="1" as="geometry">
            <mxPoint x="846.5" y="2910" as="sourcePoint" />
            <mxPoint x="657.5" y="2873" as="targetPoint" />
            <mxPoint as="offset" />
          </mxGeometry>
        </mxCell>
        <mxCell id="CZpRQN7b8hvWYTL_q2dB-104" value="로그인" style="ellipse;whiteSpace=wrap;html=1;" parent="1" vertex="1">
          <mxGeometry x="40" y="2320" width="110" height="50" as="geometry" />
        </mxCell>
        <mxCell id="CZpRQN7b8hvWYTL_q2dB-105" value="" style="endArrow=open;endFill=1;endSize=12;html=1;rounded=0;entryX=0.5;entryY=0;entryDx=0;entryDy=0;exitX=0.5;exitY=0.683;exitDx=0;exitDy=0;exitPerimeter=0;" parent="1" target="CZpRQN7b8hvWYTL_q2dB-104" edge="1" source="CZpRQN7b8hvWYTL_q2dB-71">
          <mxGeometry width="160" relative="1" as="geometry">
            <mxPoint x="95.36000000000001" y="1590.8999999999999" as="sourcePoint" />
            <mxPoint x="95.00000000000011" y="1726.2499999999998" as="targetPoint" />
          </mxGeometry>
        </mxCell>
        <mxCell id="8R-UzPs8IWDINZbfJ_F3-6" value="예약화면&amp;nbsp;&lt;br&gt;(조회)" style="ellipse;whiteSpace=wrap;html=1;" vertex="1" parent="1">
          <mxGeometry x="435" y="1350" width="110" height="50" as="geometry" />
        </mxCell>
        <mxCell id="8R-UzPs8IWDINZbfJ_F3-7" value="커뮤니티&lt;br&gt;(조회)" style="ellipse;whiteSpace=wrap;html=1;" vertex="1" parent="1">
          <mxGeometry x="435" y="1430" width="110" height="50" as="geometry" />
        </mxCell>
        <mxCell id="8R-UzPs8IWDINZbfJ_F3-8" value="FAQ&lt;br&gt;(조회)" style="ellipse;whiteSpace=wrap;html=1;" vertex="1" parent="1">
          <mxGeometry x="610" y="1430.0000000000002" width="110" height="50" as="geometry" />
        </mxCell>
        <mxCell id="8R-UzPs8IWDINZbfJ_F3-18" style="edgeStyle=orthogonalEdgeStyle;rounded=0;orthogonalLoop=1;jettySize=auto;html=1;exitX=0.5;exitY=1;exitDx=0;exitDy=0;" edge="1" parent="1" source="8R-UzPs8IWDINZbfJ_F3-9">
          <mxGeometry relative="1" as="geometry">
            <mxPoint x="665.4285714285716" y="1554.2900000000002" as="targetPoint" />
          </mxGeometry>
        </mxCell>
        <mxCell id="8R-UzPs8IWDINZbfJ_F3-9" value="질문게시글&lt;br&gt;(조회)" style="ellipse;whiteSpace=wrap;html=1;" vertex="1" parent="1">
          <mxGeometry x="610" y="1504.2900000000002" width="110" height="50" as="geometry" />
        </mxCell>
        <mxCell id="8R-UzPs8IWDINZbfJ_F3-10" value="이벤트&amp;nbsp;&lt;br&gt;(조회)" style="ellipse;whiteSpace=wrap;html=1;" vertex="1" parent="1">
          <mxGeometry x="435" y="1510" width="110" height="50" as="geometry" />
        </mxCell>
        <mxCell id="8R-UzPs8IWDINZbfJ_F3-11" value="" style="endArrow=open;endFill=1;endSize=12;html=1;rounded=0;exitX=0.5;exitY=0.5;exitDx=0;exitDy=0;exitPerimeter=0;entryX=0;entryY=0.5;entryDx=0;entryDy=0;" edge="1" parent="1" source="CZpRQN7b8hvWYTL_q2dB-56" target="8R-UzPs8IWDINZbfJ_F3-6">
          <mxGeometry width="160" relative="1" as="geometry">
            <mxPoint x="235" y="1450" as="sourcePoint" />
            <mxPoint x="543" y="1327" as="targetPoint" />
          </mxGeometry>
        </mxCell>
        <mxCell id="8R-UzPs8IWDINZbfJ_F3-12" value="" style="endArrow=open;endFill=1;endSize=12;html=1;rounded=0;exitX=0.5;exitY=0.5;exitDx=0;exitDy=0;exitPerimeter=0;entryX=0;entryY=0.5;entryDx=0;entryDy=0;" edge="1" parent="1" source="CZpRQN7b8hvWYTL_q2dB-56" target="8R-UzPs8IWDINZbfJ_F3-7">
          <mxGeometry width="160" relative="1" as="geometry">
            <mxPoint x="235" y="1450" as="sourcePoint" />
            <mxPoint x="540" y="1395" as="targetPoint" />
          </mxGeometry>
        </mxCell>
        <mxCell id="8R-UzPs8IWDINZbfJ_F3-13" value="" style="endArrow=open;endFill=1;endSize=12;html=1;rounded=0;exitX=0.5;exitY=0.5;exitDx=0;exitDy=0;exitPerimeter=0;entryX=0.002;entryY=0.349;entryDx=0;entryDy=0;entryPerimeter=0;" edge="1" parent="1" source="CZpRQN7b8hvWYTL_q2dB-56" target="8R-UzPs8IWDINZbfJ_F3-10">
          <mxGeometry width="160" relative="1" as="geometry">
            <mxPoint x="235" y="1450" as="sourcePoint" />
            <mxPoint x="490" y="1520" as="targetPoint" />
          </mxGeometry>
        </mxCell>
        <mxCell id="8R-UzPs8IWDINZbfJ_F3-15" value="" style="endArrow=open;endFill=1;endSize=12;html=1;rounded=0;entryX=0;entryY=0.5;entryDx=0;entryDy=0;exitX=1;exitY=0.5;exitDx=0;exitDy=0;" edge="1" parent="1" source="8R-UzPs8IWDINZbfJ_F3-7" target="8R-UzPs8IWDINZbfJ_F3-8">
          <mxGeometry width="160" relative="1" as="geometry">
            <mxPoint x="570" y="1450" as="sourcePoint" />
            <mxPoint x="630" y="1415" as="targetPoint" />
          </mxGeometry>
        </mxCell>
        <mxCell id="8R-UzPs8IWDINZbfJ_F3-17" value="" style="endArrow=open;endFill=1;endSize=12;html=1;rounded=0;entryX=0;entryY=0.5;entryDx=0;entryDy=0;exitX=1;exitY=0.5;exitDx=0;exitDy=0;" edge="1" parent="1" source="8R-UzPs8IWDINZbfJ_F3-7" target="8R-UzPs8IWDINZbfJ_F3-9">
          <mxGeometry width="160" relative="1" as="geometry">
            <mxPoint x="553" y="1465" as="sourcePoint" />
            <mxPoint x="640" y="1425" as="targetPoint" />
          </mxGeometry>
        </mxCell>
        <mxCell id="8R-UzPs8IWDINZbfJ_F3-19" value="예약화면&amp;nbsp;" style="ellipse;whiteSpace=wrap;html=1;" vertex="1" parent="1">
          <mxGeometry x="260" y="1770" width="110" height="50" as="geometry" />
        </mxCell>
        <mxCell id="8R-UzPs8IWDINZbfJ_F3-21" value="예약진행" style="ellipse;whiteSpace=wrap;html=1;" vertex="1" parent="1">
          <mxGeometry x="435" y="1704" width="110" height="50" as="geometry" />
        </mxCell>
        <mxCell id="8R-UzPs8IWDINZbfJ_F3-23" value="결제페이지" style="ellipse;whiteSpace=wrap;html=1;" vertex="1" parent="1">
          <mxGeometry x="620" y="1670" width="110" height="50" as="geometry" />
        </mxCell>
        <mxCell id="8R-UzPs8IWDINZbfJ_F3-24" value="예약완료 페이지&lt;br&gt;" style="ellipse;whiteSpace=wrap;html=1;" vertex="1" parent="1">
          <mxGeometry x="620" y="1750" width="110" height="50" as="geometry" />
        </mxCell>
        <mxCell id="8R-UzPs8IWDINZbfJ_F3-26" value="커뮤니티" style="ellipse;whiteSpace=wrap;html=1;" vertex="1" parent="1">
          <mxGeometry x="240" y="1900" width="110" height="50" as="geometry" />
        </mxCell>
        <mxCell id="8R-UzPs8IWDINZbfJ_F3-31" value="공지사항&lt;br&gt;(조회)" style="ellipse;whiteSpace=wrap;html=1;" vertex="1" parent="1">
          <mxGeometry x="610" y="1354.2900000000002" width="110" height="50" as="geometry" />
        </mxCell>
        <mxCell id="8R-UzPs8IWDINZbfJ_F3-32" value="" style="endArrow=open;endFill=1;endSize=12;html=1;rounded=0;entryX=0.049;entryY=0.764;entryDx=0;entryDy=0;entryPerimeter=0;exitX=1;exitY=0.5;exitDx=0;exitDy=0;" edge="1" parent="1" source="8R-UzPs8IWDINZbfJ_F3-7" target="8R-UzPs8IWDINZbfJ_F3-31">
          <mxGeometry width="160" relative="1" as="geometry">
            <mxPoint x="560" y="1440" as="sourcePoint" />
            <mxPoint x="628.5" y="1430" as="targetPoint" />
          </mxGeometry>
        </mxCell>
        <mxCell id="8R-UzPs8IWDINZbfJ_F3-33" value="FAQ&lt;br&gt;(조회)" style="ellipse;whiteSpace=wrap;html=1;" vertex="1" parent="1">
          <mxGeometry x="400" y="1862.8500000000001" width="110" height="50" as="geometry" />
        </mxCell>
        <mxCell id="8R-UzPs8IWDINZbfJ_F3-34" value="질문게시글&lt;br&gt;(조회)" style="ellipse;whiteSpace=wrap;html=1;" vertex="1" parent="1">
          <mxGeometry x="400" y="1937.14" width="110" height="50" as="geometry" />
        </mxCell>
        <mxCell id="8R-UzPs8IWDINZbfJ_F3-36" value="" style="endArrow=open;endFill=1;endSize=12;html=1;rounded=0;exitX=0.417;exitY=0.625;exitDx=0;exitDy=0;exitPerimeter=0;" edge="1" parent="1" source="CZpRQN7b8hvWYTL_q2dB-71" target="8R-UzPs8IWDINZbfJ_F3-26">
          <mxGeometry width="160" relative="1" as="geometry">
            <mxPoint x="118.5" y="1900" as="sourcePoint" />
            <mxPoint x="331.5" y="1747" as="targetPoint" />
          </mxGeometry>
        </mxCell>
        <mxCell id="8R-UzPs8IWDINZbfJ_F3-37" value="" style="endArrow=open;endFill=1;endSize=12;html=1;rounded=0;exitX=0.472;exitY=0.639;exitDx=0;exitDy=0;exitPerimeter=0;entryX=0;entryY=0.5;entryDx=0;entryDy=0;" edge="1" parent="1" source="CZpRQN7b8hvWYTL_q2dB-71" target="8R-UzPs8IWDINZbfJ_F3-19">
          <mxGeometry width="160" relative="1" as="geometry">
            <mxPoint x="108" y="1848" as="sourcePoint" />
            <mxPoint x="266" y="1918" as="targetPoint" />
          </mxGeometry>
        </mxCell>
        <mxCell id="8R-UzPs8IWDINZbfJ_F3-38" value="" style="endArrow=open;endFill=1;endSize=12;html=1;rounded=0;entryX=0.045;entryY=0.72;entryDx=0;entryDy=0;entryPerimeter=0;exitX=0.992;exitY=0.383;exitDx=0;exitDy=0;exitPerimeter=0;" edge="1" parent="1" source="8R-UzPs8IWDINZbfJ_F3-19" target="8R-UzPs8IWDINZbfJ_F3-21">
          <mxGeometry width="160" relative="1" as="geometry">
            <mxPoint x="410" y="1810" as="sourcePoint" />
            <mxPoint x="530" y="1749" as="targetPoint" />
          </mxGeometry>
        </mxCell>
        <mxCell id="8R-UzPs8IWDINZbfJ_F3-39" value="" style="endArrow=open;endFill=1;endSize=12;html=1;rounded=0;entryX=0.061;entryY=0.75;entryDx=0;entryDy=0;fontStyle=1;entryPerimeter=0;exitX=1;exitY=0.5;exitDx=0;exitDy=0;" edge="1" parent="1" source="8R-UzPs8IWDINZbfJ_F3-21" target="8R-UzPs8IWDINZbfJ_F3-23">
          <mxGeometry width="160" relative="1" as="geometry">
            <mxPoint x="540" y="1720" as="sourcePoint" />
            <mxPoint x="700" y="1680" as="targetPoint" />
          </mxGeometry>
        </mxCell>
        <mxCell id="8R-UzPs8IWDINZbfJ_F3-40" value="" style="endArrow=open;endFill=1;endSize=12;html=1;rounded=0;fontStyle=1;exitX=0.924;exitY=0.253;exitDx=0;exitDy=0;exitPerimeter=0;" edge="1" parent="1" target="8R-UzPs8IWDINZbfJ_F3-24">
          <mxGeometry width="160" relative="1" as="geometry">
            <mxPoint x="547" y="1727" as="sourcePoint" />
            <mxPoint x="624" y="1702" as="targetPoint" />
          </mxGeometry>
        </mxCell>
      </root>
    </mxGraphModel>
  </diagram>
</mxfile>
